<svg aria-hidden="true" style="position: absolute; width: 0; height: 0; overflow: hidden;" version="1.1" xmlns="http://www.w3.org/2000/svg" xmlns:xlink="http://www.w3.org/1999/xlink">
<defs>
<symbol id="icon-facebook" viewBox="0 0 32 32">
<title>facebook</title>
<path fill="#1877f2" style="fill: var(--color1, #1877f2)" d="M31.997 15.999c0-8.836-7.163-15.999-15.999-15.999s-15.999 7.163-15.999 15.999c0 7.985 5.851 14.604 13.499 15.804v-11.18h-4.062v-4.625h4.062v-3.525c0-4.010 2.389-6.225 6.043-6.225 1.75 0 3.581 0.313 3.581 0.313v3.937h-2.017c-1.987 0-2.607 1.233-2.607 2.498v3.001h4.437l-0.709 4.625h-3.728v11.18c7.649-1.2 13.499-7.819 13.499-15.804z"></path>
</symbol>
<symbol id="icon-instagram" viewBox="0 0 32 32">
<title>instagram</title>
<path fill="#e4405f" style="fill: var(--color2, #e4405f)" d="M16 0c-4.347 0-4.889 0.020-6.596 0.096-1.704 0.080-2.864 0.348-3.884 0.744-1.052 0.408-1.945 0.956-2.835 1.845s-1.439 1.781-1.845 2.835c-0.396 1.020-0.665 2.18-0.744 3.884-0.080 1.707-0.096 2.249-0.096 6.596s0.020 4.889 0.096 6.596c0.080 1.703 0.348 2.864 0.744 3.884 0.408 1.051 0.956 1.945 1.845 2.835 0.889 0.888 1.781 1.439 2.835 1.845 1.021 0.395 2.181 0.665 3.884 0.744 1.707 0.080 2.249 0.096 6.596 0.096s4.889-0.020 6.596-0.096c1.703-0.080 2.864-0.349 3.884-0.744 1.051-0.408 1.945-0.957 2.835-1.845 0.888-0.889 1.439-1.78 1.845-2.835 0.395-1.020 0.665-2.181 0.744-3.884 0.080-1.707 0.096-2.249 0.096-6.596s-0.020-4.889-0.096-6.596c-0.080-1.703-0.349-2.865-0.744-3.884-0.408-1.052-0.957-1.945-1.845-2.835-0.889-0.889-1.78-1.439-2.835-1.845-1.020-0.396-2.181-0.665-3.884-0.744-1.707-0.080-2.249-0.096-6.596-0.096zM16 2.88c4.271 0 4.78 0.021 6.467 0.095 1.56 0.073 2.407 0.332 2.969 0.553 0.749 0.289 1.28 0.636 1.843 1.195 0.559 0.56 0.905 1.092 1.195 1.841 0.219 0.563 0.48 1.409 0.551 2.969 0.076 1.688 0.093 2.195 0.093 6.467s-0.020 4.78-0.099 6.467c-0.081 1.56-0.341 2.407-0.561 2.969-0.299 0.749-0.639 1.28-1.199 1.843-0.559 0.559-1.099 0.905-1.84 1.195-0.56 0.219-1.42 0.48-2.98 0.551-1.699 0.076-2.199 0.093-6.479 0.093-4.281 0-4.781-0.020-6.479-0.099-1.561-0.081-2.421-0.341-2.981-0.561-0.759-0.299-1.28-0.639-1.839-1.199-0.561-0.559-0.92-1.099-1.2-1.84-0.22-0.56-0.479-1.42-0.56-2.98-0.060-1.68-0.081-2.199-0.081-6.459 0-4.261 0.021-4.781 0.081-6.481 0.081-1.56 0.34-2.419 0.56-2.979 0.28-0.76 0.639-1.28 1.2-1.841 0.559-0.559 1.080-0.919 1.839-1.197 0.56-0.221 1.401-0.481 2.961-0.561 1.7-0.060 2.2-0.080 6.479-0.080zM16 7.784c-4.54 0-8.216 3.68-8.216 8.216 0 4.54 3.68 8.216 8.216 8.216 4.54 0 8.216-3.68 8.216-8.216 0-4.54-3.68-8.216-8.216-8.216zM16 21.333c-2.947 0-5.333-2.387-5.333-5.333s2.387-5.333 5.333-5.333 5.333 2.387 5.333 5.333-2.387 5.333-5.333 5.333zM26.461 7.46c0 1.060-0.861 1.92-1.92 1.92-1.060 0-1.92-0.861-1.92-1.92s0.861-1.919 1.92-1.919c1.057-0.001 1.92 0.86 1.92 1.919z"></path>
</symbol>
<symbol id="icon-twitter" viewBox="0 0 32 32">
<title>twitter</title>
<path fill="#1da1f2" style="fill: var(--color3, #1da1f2)" d="M31.939 6.092c-1.18 0.519-2.44 0.872-3.767 1.033 1.352-0.815 2.392-2.099 2.884-3.631-1.268 0.74-2.673 1.279-4.169 1.579-1.195-1.279-2.897-2.079-4.788-2.079-3.623 0-6.56 2.937-6.56 6.556 0 0.52 0.060 1.020 0.169 1.499-5.453-0.257-10.287-2.876-13.521-6.835-0.569 0.963-0.888 2.081-0.888 3.3 0 2.28 1.16 4.284 2.917 5.461-1.076-0.035-2.088-0.331-2.971-0.821v0.081c0 3.18 2.257 5.832 5.261 6.436-0.551 0.148-1.132 0.228-1.728 0.228-0.419 0-0.82-0.040-1.221-0.115 0.841 2.604 3.26 4.503 6.139 4.556-2.24 1.759-5.079 2.807-8.136 2.807-0.52 0-1.039-0.031-1.56-0.089 2.919 1.859 6.357 2.945 10.076 2.945 12.072 0 18.665-9.995 18.665-18.648 0-0.279 0-0.56-0.020-0.84 1.281-0.919 2.4-2.080 3.28-3.397z"></path>
</symbol>
<symbol id="icon-ubereats" viewBox="0 0 32 32">
<title>ubereats</title>
<path fill="#5fb709" style="fill: var(--color4, #5fb709)" d="M0 3.667v6.787c0 2.56 1.787 4.253 4.107 4.253 1.133 0 2.147-0.44 2.867-1.2v1.013h1.613v-10.853h-1.627v6.693c0 1.72-1.16 2.88-2.667 2.88-1.52 0-2.667-1.133-2.667-2.88v-6.693h-1.627zM9.8 3.667v10.853h1.533v-1c0.717 0.733 1.716 1.187 2.821 1.187 0.007 0 0.013-0 0.020-0h-0.001c0.008 0 0.017 0 0.027 0 2.275 0 4.12-1.845 4.12-4.12 0-0.005 0-0.009-0-0.014v0.001c0-0.004 0-0.009 0-0.013 0-2.275-1.845-4.12-4.12-4.12-0.009 0-0.019 0-0.028 0h0.001c-1.107 0-2.093 0.453-2.84 1.173v-3.947h-1.533zM23.013 6.453c-2.347 0-4.067 1.88-4.067 4.107 0 2.36 1.827 4.107 4.2 4.107 1.44 0 2.627-0.613 3.413-1.667l-1.133-0.84c-0.587 0.787-1.36 1.173-2.28 1.173-1.333 0-2.4-0.973-2.613-2.253h6.427v-0.52c0-2.347-1.667-4.107-3.947-4.107zM31.267 6.547c-0.867 0-1.493 0.4-1.88 1.040v-0.973h-1.56v7.907h1.573v-4.52c0-1.2 0.747-2 1.76-2h0.653v-1.453h-0.547zM22.973 7.813c1.173 0 2.147 0.813 2.413 2.027h-4.827c0.28-1.213 1.253-2.027 2.413-2.027zM14.067 7.84c1.48 0 2.707 1.2 2.707 2.733 0 1.52-1.227 2.76-2.707 2.76-0.004 0-0.009 0-0.014 0-1.502 0-2.72-1.218-2.72-2.72 0-0.014 0-0.028 0-0.042l-0 0.002c0-1.533 1.227-2.733 2.733-2.733zM0 17.28v10.853h7.627v-1.853h-5.56v-2.693h5.413v-1.8h-5.413v-2.653h5.56v-1.853h-7.627zM19.413 17.84v2.28h-1.547v1.813h1.547v4.267c0 1.080 0.76 1.933 2.133 1.933h2.187v-1.813h-1.52c-0.467 0-0.76-0.213-0.76-0.64v-3.747h2.28v-1.813h-2.28v-2.28h-2.040zM12.427 19.92c-2.387 0-4.267 1.867-4.267 4.213 0 2.333 1.88 4.2 4.267 4.2 0.96 0 1.853-0.333 2.56-0.92v0.72h2.027v-8.013h-2.027v0.72c-0.68-0.572-1.566-0.92-2.533-0.92-0.009 0-0.019 0-0.028 0h0.001zM28.053 19.92c-2.12 0-3.6 0.867-3.6 2.56 0 1.16 0.813 1.92 2.573 2.293l1.933 0.453c0.76 0.147 0.96 0.347 0.96 0.667 0 0.493-0.587 0.813-1.507 0.813-1.16 0-1.827-0.267-2.093-1.147h-2.040c0.293 1.667 1.533 2.773 4.067 2.773 2.32 0 3.653-1.107 3.653-2.653 0-1.093-0.773-1.907-2.413-2.253l-1.72-0.36c-1-0.187-1.32-0.4-1.32-0.747 0-0.48 0.48-0.773 1.373-0.773 0.96 0 1.667 0.267 1.867 1.12h2.027c-0.107-1.64-1.32-2.747-3.76-2.747zM12.6 21.68c1.347 0 2.427 1.080 2.427 2.453s-1.080 2.44-2.427 2.44c-0.004 0-0.009 0-0.013 0-1.34 0-2.427-1.086-2.427-2.427 0-0.005 0-0.009 0-0.014v0.001c0-1.373 1.107-2.453 2.44-2.453z"></path>
</symbol>
<symbol id="icon-visa" viewBox="0 0 32 32">
<title>visa</title>
<path fill="#142787" style="fill: var(--color5, #142787)" d="M23.26 11.497c-0.516-0.195-1.32-0.401-2.32-0.401-2.56 0-4.367 1.291-4.38 3.14-0.016 1.36 1.285 2.125 2.268 2.581 1.009 0.467 1.347 0.76 1.344 1.18-0.007 0.636-0.807 0.924-1.549 0.924-1.021 0-1.581-0.143-2.441-0.5l-0.319-0.148-0.361 2.131c0.621 0.26 1.741 0.483 2.9 0.5 2.721 0 4.5-1.281 4.521-3.252 0.021-1.084-0.68-1.907-2.161-2.584-0.899-0.44-1.459-0.735-1.459-1.181 0-0.395 0.479-0.816 1.479-0.816 0.86-0.013 1.461 0.172 1.94 0.364l0.24 0.108 0.361-2.059zM29.904 11.271h-2c-0.623 0-1.088 0.169-1.361 0.788l-3.847 8.712h2.721l0.544-1.427 3.32 0.003c0.081 0.333 0.32 1.424 0.32 1.424h2.399zM12.88 11.191h2.591l-1.62 9.505h-2.592l1.621-9.508zM6.295 16.429l0.269 1.32 2.535-6.479h2.745l-4.081 9.487h-2.739l-2.24-8.035c-0.047-0.137-0.104-0.231-0.24-0.316-0.757-0.396-1.604-0.719-2.544-0.943l0.033-0.2h4.175c0.565 0.021 1.021 0.2 1.177 0.805l0.909 4.364zM26.705 17.399l1.033-2.659c-0.013 0.027 0.213-0.549 0.344-0.907l0.177 0.82 0.599 2.743h-2.153z"></path>
</symbol>
<symbol id="icon-youtube" viewBox="0 0 32 32">
<title>youtube</title>
<path fill="#f00" style="fill: var(--color6, #f00)" d="M31.327 8.273c-0.386-1.353-1.431-2.398-2.756-2.777l-0.028-0.007c-2.493-0.668-12.528-0.668-12.528-0.668s-10.009-0.013-12.528 0.668c-1.353 0.386-2.398 1.431-2.777 2.756l-0.007 0.028c-0.443 2.281-0.696 4.903-0.696 7.585 0 0.054 0 0.109 0 0.163l-0-0.008c-0 0.037-0 0.082-0 0.126 0 2.682 0.253 5.304 0.737 7.845l-0.041-0.26c0.386 1.353 1.431 2.398 2.756 2.777l0.028 0.007c2.491 0.669 12.528 0.669 12.528 0.669s10.008 0 12.528-0.669c1.353-0.386 2.398-1.431 2.777-2.756l0.007-0.028c0.425-2.233 0.668-4.803 0.668-7.429 0-0.099-0-0.198-0.001-0.297l0 0.015c0.001-0.092 0.001-0.201 0.001-0.31 0-2.626-0.243-5.196-0.708-7.687l0.040 0.258zM12.812 20.801v-9.591l8.352 4.803z"></path>
</symbol>
</defs>
</svg>
